<svg width="160" height="160" viewBox="0 0 160 160" fill="none" xmlns="http://www.w3.org/2000/svg">
<g clip-path="url(#clip0)">
<path fill-rule="evenodd" clip-rule="evenodd" d="M38.4782 58.0905C37.0957 59.545 35.6236 61.0918 34.1515 62.6387C32.2277 64.6601 30.3038 66.6816 28.58 68.497C27.2327 69.9158 26.0075 71.2087 25 72.2773C26.5441 73.0642 28.0725 73.8733 29.5856 74.7039C35.1648 77.7664 40.5379 81.1213 45.7388 84.7345C50.6902 88.1348 55.5396 91.7912 60.1988 95.6591C60.9749 96.3033 61.7456 96.9534 62.5106 97.6092C62.9978 98.0963 63.4849 98.5139 64.0417 98.9315L81.9967 70.8158C80.084 70.7238 78.1848 70.6017 76.2978 70.4499C65.3478 69.5693 54.8087 67.6912 44.4216 64.9018C44.2856 64.2239 44.1616 63.5431 44.0497 62.8598C43.8932 61.8818 43.7625 60.8949 43.6565 59.8991C43.5634 59.0246 43.4894 58.1432 43.4336 57.255C43.4335 57.2534 43.4334 57.2518 43.4333 57.2502C43.3464 55.8662 43.304 54.4656 43.303 53.0484C43.303 53.0484 43.303 53.0484 43.303 53.0484C43.303 53.0323 43.303 53.0161 43.303 53L43.2789 53.0256L41.2427 55.1785C40.387 56.0814 39.455 57.0629 38.4782 58.0905ZM39.2613 64.5221C38.7686 65.04 38.2725 65.5612 37.7766 66.0823L37.7734 66.0856C36.1894 67.7501 34.6082 69.4116 33.1398 70.9567C38.4672 73.9328 43.6048 77.1642 48.5804 80.6204C53.4793 83.9852 58.2828 87.5959 62.9104 91.4131L73.2627 75.2026C62.9397 74.2202 52.9605 72.372 43.1248 69.7307L40.1291 68.9262L39.5192 65.8849C39.4283 65.4319 39.3424 64.9776 39.2613 64.5221ZM136.291 59.9106C136.105 61.5939 135.844 63.265 135.511 64.9196C125.095 67.6971 114.577 69.5683 103.701 70.4479C101.813 70.6006 99.914 70.7234 98.0031 70.8158L115.958 98.9314C116.515 98.5139 117.002 98.0963 117.489 97.6092C117.64 97.4619 117.79 97.3139 117.94 97.1652C118.549 96.647 119.161 96.1323 119.777 95.6214C124.422 91.7673 129.256 88.1239 134.192 84.7345C139.445 81.1229 144.827 77.7694 150.406 74.708C151.923 73.876 153.453 73.0655 155 72.2773C153.979 71.2111 152.749 69.9215 151.4 68.5071C150.768 67.8436 150.109 67.1525 149.434 66.4441L149.427 66.4374L149.424 66.4336L149.411 66.4202C149.276 66.2783 149.14 66.1358 149.003 65.9926C147.762 64.6907 146.474 63.3387 145.194 61.9977C145.189 61.9931 145.185 61.9885 145.181 61.9838C145.18 61.9828 145.179 61.9817 145.178 61.9807L145.187 61.9775L136.698 53.0011L136.697 53L136.697 53.141L136.627 53.0696C136.628 53.0934 136.628 53.1172 136.628 53.141C136.628 53.163 136.629 53.1849 136.629 53.2069C136.65 55.3537 136.546 57.4902 136.323 59.6078C136.315 59.6898 136.306 59.7719 136.297 59.8539C136.295 59.8698 136.293 59.8858 136.292 59.9018C136.291 59.9047 136.291 59.9077 136.291 59.9106ZM140.678 64.5076C140.595 64.9743 140.507 65.4398 140.414 65.904L139.802 68.9503L136.8 69.7508C126.947 72.3779 116.991 74.2185 106.735 75.1994L117.065 91.3755C121.682 87.5699 126.473 83.9699 131.359 80.6142C136.372 77.1677 141.514 73.9416 146.838 70.9681C146.506 70.6195 146.168 70.2652 145.827 69.9066L145.813 69.8923L145.811 69.8898L145.805 69.8843L145.804 69.883L145.8 69.8791L145.793 69.871L145.792 69.87C144.421 68.4324 142.985 66.9254 141.56 65.4326L140.678 64.5076ZM105.271 101.884L100.512 94.4168C93.5733 94.7622 86.467 94.7617 79.4888 94.4159L74.7191 101.9C80.1067 107.118 85.1913 112.623 89.9735 118.367C94.7517 112.576 99.8733 107.067 105.271 101.884ZM93.1924 122.326C98.8903 115.344 105.105 108.771 111.713 102.689L103.153 89.258C94.5235 89.8147 85.546 89.8147 76.8469 89.258L68.2869 102.689C74.8926 108.827 81.0563 115.407 86.7781 122.347C87.8681 123.669 88.9421 125.004 90 126.351C91.0449 124.995 92.1093 123.653 93.1924 122.326Z" fill="#504A55"/>
</g>
<defs>
<clipPath id="clip0">
<rect width="160" height="160" fill="white"/>
</clipPath>
</defs>
</svg>
